<svg xmlns="http://www.w3.org/2000/svg" viewBox="0 0 143 122.94"><defs><style>.cls-1{fill:#e93d46;}.cls-2{fill:#35434e;}</style></defs><title>Asset 1academy</title><g id="Layer_2" data-name="Layer 2"><g id="Layer_1-2" data-name="Layer 1"><path class="cls-1" d="M89.19,57.89H82.44v4.5h6.75a9.08,9.08,0,0,0,9-9h-4.5A4.54,4.54,0,0,1,89.19,57.89Z"/><path class="cls-1" d="M142.17,49.71a2.22,2.22,0,0,0-3.07,0L128.67,60.14H126L91.44,25.78V23.12L110.26,3.89a2.22,2.22,0,0,0,0-3.07,2.22,2.22,0,0,0-3.07,0L87.76,20.66a2.32,2.32,0,0,0-.62,1.64v4.29a2.32,2.32,0,0,0,.62,1.64l.61.61H63.21l-2.45,3.07L49.71,43c-.21.2-2.86,3.07-2.86,6.14a9.09,9.09,0,0,0,9,9c3.06,0,5.72-2.66,6.13-2.87L72.42,44.8l-3.07-3.07L58.91,52.16a5.76,5.76,0,0,1-2.86,1.64,4.55,4.55,0,0,1-4.5-4.5,5.76,5.76,0,0,1,1.64-2.86L65.87,33.75H93.08l27.61,27.62-7,6.95v4.5L105.56,81a2.22,2.22,0,0,0,0,3.07,2.34,2.34,0,0,0,1.63.61,2.36,2.36,0,0,0,1.64-.61l9.61-9.62V70l5.73-5.73a1.79,1.79,0,0,0,1,.21h4.5a2.32,2.32,0,0,0,1.64-.62l11.25-11.25A2,2,0,0,0,142.17,49.71Z"/><path class="cls-1" d="M68.53,116.6a2.22,2.22,0,0,0-3.07,0,5.8,5.8,0,0,1-2.86,1.64,4.54,4.54,0,0,1-4.5-4.5,5.88,5.88,0,0,1,1.63-2.87,1,1,0,0,0,.41-.81,2.17,2.17,0,0,0-3.27-2.66.2.2,0,0,0-.21.2,5.83,5.83,0,0,1-2.86,1.64,4.55,4.55,0,0,1-4.5-4.5,5.83,5.83,0,0,1,1.64-2.87,1.07,1.07,0,0,0,.41-.82,2.17,2.17,0,0,0-3.28-2.65.2.2,0,0,0-.2.2A5.9,5.9,0,0,1,45,100.24a4.55,4.55,0,0,1-4.5-4.5,5.9,5.9,0,0,1,1.64-2.87,1.07,1.07,0,0,0,.41-.82,2.17,2.17,0,0,0-3.27-2.66.21.21,0,0,0-.21.21,5.83,5.83,0,0,1-2.86,1.64,4.54,4.54,0,0,1-4.5-4.5,5.84,5.84,0,0,1,1.63-2.87,2.17,2.17,0,0,0-3.06-3.07c-.21.21-2.87,3.07-2.87,6.14a9.08,9.08,0,0,0,9,9,9.08,9.08,0,0,0,9,9,9.08,9.08,0,0,0,9,9,9.09,9.09,0,0,0,9,9c3.07,0,5.73-2.66,6.14-2.86C69.35,119.06,69.35,117.62,68.53,116.6Z"/><path class="cls-2" d="M80.39,54.82V40.09l-4.5,4.5V56.66l29.67,29.67a5.81,5.81,0,0,1,1.63,2.86,4.54,4.54,0,0,1-4.5,4.5,5.76,5.76,0,0,1-2.86-1.64L79.58,72a2.17,2.17,0,0,0-3.07,3.07l24.54,24.54a5.83,5.83,0,0,1,1.64,2.87,4.54,4.54,0,0,1-4.5,4.5,5.83,5.83,0,0,1-2.86-1.64L70.78,80.8a2.17,2.17,0,0,0-3.07,3.07L90,106.37h0a5.88,5.88,0,0,1,1.63,2.87,4.54,4.54,0,0,1-4.5,4.5,5.88,5.88,0,0,1-2.86-1.64L61.78,89.8a2.17,2.17,0,0,0-3.07,3.07l17.8,17.8h0a5.81,5.81,0,0,1,1.63,2.86,4.53,4.53,0,0,1-4.5,4.5,5.81,5.81,0,0,1-2.86-1.63L31.09,77.12V70.37l-9-9L55,28.23a2.32,2.32,0,0,0,.61-1.64v-4.5A2.31,2.31,0,0,0,55,20.46L34.57.61a2.24,2.24,0,0,0-3.07,0,2.22,2.22,0,0,0,0,3.07L51.35,22.91v2.66L16.77,60.14H14.11L3.68,49.71a2.22,2.22,0,0,0-3.07,0,2.24,2.24,0,0,0,0,3.07L11.86,64a2.33,2.33,0,0,0,1.64.61H18c.41,0,.62-.2,1-.2l8,8v6.75l40.92,40.91c.2.2,3.06,2.86,6.13,2.86a9,9,0,0,0,8.59-6.34,8.31,8.31,0,0,0,4.91,1.84,9,9,0,0,0,8.8-7.16,10,10,0,0,0,2.45.41,9.09,9.09,0,0,0,9-9A8.88,8.88,0,0,0,106,97.78a8.83,8.83,0,0,0,6.35-8.59c0-3.07-2.66-5.73-2.87-6.14Z"/><path class="cls-2" d="M133.38,40.71a2.22,2.22,0,0,0-3.07,0l-4.5,4.5a2.22,2.22,0,0,0,0,3.07,2.5,2.5,0,0,0,3.27,0l4.5-4.5A2.49,2.49,0,0,0,133.38,40.71Z"/><path class="cls-1" d="M15.55,48.89a2.32,2.32,0,0,1-1.64-.61l-4.5-4.5a2.17,2.17,0,0,1,3.07-3.07l4.5,4.5a2.22,2.22,0,0,1,0,3.07A1.85,1.85,0,0,1,15.55,48.89Z"/></g></g></svg>