<?xml version="1.0" encoding="utf-8"?>
<!-- Generator: Adobe Illustrator 23.0.1, SVG Export Plug-In . SVG Version: 6.00 Build 0)  -->
<svg version="1.1" id="Layer_1" xmlns="http://www.w3.org/2000/svg" xmlns:xlink="http://www.w3.org/1999/xlink" x="0px" y="0px"
	 viewBox="0 0 70 70" style="enable-background:new 0 0 70 70;" xml:space="preserve">
<style type="text/css">
	.st0{fill:#262E30;}
	.st1{fill:#E93D44;}
</style>
<title>Asset 10</title>
<g>
	<g id="Layer_1-2">
		<path class="st0" d="M50.3,15.3c-2.4,0-4.4,2-4.4,4.4s2,4.4,4.4,4.4s4.4-2,4.4-4.4S52.7,15.3,50.3,15.3L50.3,15.3z M50.3,21.9
			c-1.2,0-2.2-1-2.2-2.2s1-2.2,2.2-2.2s2.2,1,2.2,2.2l0,0C52.5,20.9,51.5,21.9,50.3,21.9z"/>
		<path class="st1" d="M6.6,7.7c0-0.6,0.5-1.1,1.1-1.1h29.5V4.4H7.7c-1.8,0-3.3,1.5-3.3,3.3v29.5h2.2C6.6,37.2,6.6,7.7,6.6,7.7z"/>
		<path class="st1" d="M63.4,62.3c0,0.6-0.5,1.1-1.1,1.1H32.8v2.2h29.5c1.8,0,3.3-1.5,3.3-3.3l0,0V32.8h-2.2
			C63.4,32.8,63.4,62.3,63.4,62.3z"/>
		<rect x="8.8" y="8.8" class="st0" width="15.3" height="2.2"/>
		<rect x="8.8" y="13.1" class="st0" width="2.2" height="2.2"/>
		<rect x="13.1" y="13.1" class="st0" width="2.2" height="2.2"/>
		<rect x="17.5" y="13.1" class="st0" width="2.2" height="2.2"/>
		<rect x="33.9" y="33.9" class="st1" width="2.2" height="2.2"/>
		<rect x="45.9" y="59.1" class="st0" width="15.3" height="2.2"/>
		<rect x="59.1" y="54.7" class="st0" width="2.2" height="2.2"/>
		<rect x="54.7" y="54.7" class="st0" width="2.2" height="2.2"/>
		<rect x="50.3" y="54.7" class="st0" width="2.2" height="2.2"/>
		<path class="st0" d="M19.7,44.8c1.2,0,2.2,1,2.2,2.2h2.2c0-2-1.4-3.7-3.3-4.2v-2.3h-2.2v2.3c-1.9,0.5-3.3,2.2-3.3,4.2
			c0,2.4,3.3,4,3.9,4.3c1.1,0.5,2.6,1.6,2.6,2.3c0,1.2-1,2.2-2.2,2.2s-2.2-1-2.2-2.2l0,0h-2.2c0,2,1.4,3.7,3.3,4.2v2.3h2.2v-2.3
			c1.9-0.5,3.3-2.2,3.3-4.2c0-2.4-3.3-4-3.9-4.3c-1.1-0.5-2.6-1.6-2.6-2.3C17.5,45.8,18.5,44.8,19.7,44.8L19.7,44.8z"/>
		<rect x="26.2" y="49.2" class="st0" width="2.2" height="2.2"/>
		<rect x="10.9" y="49.2" class="st0" width="2.2" height="2.2"/>
		<path class="st0" d="M65.2,19.7l4.4-3.5c0.4-0.3,0.5-0.8,0.3-1.3l-2.2-5.5c-0.2-0.4-0.6-0.7-1-0.7h-5.5V3.3c0-0.4-0.3-0.8-0.7-1
			L55,0.1c-0.4-0.2-1,0-1.3,0.3l-3.5,4.4l-3.5-4.4C46.5,0,46-0.1,45.5,0.1L40,2.3c-0.4,0.2-0.7,0.6-0.7,1v5.5h-5.5
			c-0.4,0-0.8,0.3-1,0.7L30.6,15c-0.2,0.4-0.1,1,0.3,1.3l4.4,3.5L31,23.2c-0.4,0.3-0.5,0.8-0.3,1.3l2.2,5.5c0.2,0.4,0.6,0.7,1,0.7
			h5.5v5.5c0,0.4,0.3,0.8,0.7,1l5.5,2.2c0.5,0.2,1,0.1,1.3-0.3l3.5-4.4l3.5,4.4c0.2,0.3,0.5,0.4,0.9,0.4c0.1,0,0.3,0,0.4-0.1
			l5.5-2.2c0.4-0.2,0.7-0.6,0.7-1v-5.5h5.5c0.4,0,0.8-0.3,1-0.7l2.2-5.5c0.2-0.4,0-1-0.3-1.3L65.2,19.7z M66,28.4h-5.8
			c-0.6,0-1.1,0.5-1.1,1.1l0,0v5.8L55,37l-3.9-4.8c-0.2-0.3-0.5-0.4-0.9-0.4c-0.3,0-0.6,0.2-0.8,0.4L45.6,37l-4-1.6v-5.9
			c0-0.6-0.5-1.1-1.1-1.1l0,0h-5.8l-1.6-4l4.8-3.9c0.3-0.2,0.4-0.5,0.4-0.9c0-0.3-0.2-0.6-0.4-0.9L33,15l1.6-4h5.8
			c0.6,0,1.1-0.5,1.1-1.1l0,0V4l4-1.6l3.9,4.8c0.4,0.5,1.2,0.5,1.6,0.1l0.1-0.1L55,2.4L59,4v5.8c0,0.6,0.5,1.1,1.1,1.1H66l1.6,4
			l-4.8,3.9c-0.3,0.2-0.4,0.5-0.4,0.9c0,0.3,0.2,0.6,0.4,0.9l4.8,3.9L66,28.4z"/>
		<path class="st0" d="M50.3,9.8c-5.4,0-9.8,4.4-9.8,9.9s4.4,9.9,9.9,9.9s9.8-4.4,9.8-9.9S55.8,9.8,50.3,9.8L50.3,9.8z M50.3,27.3
			c-4.2,0-7.6-3.5-7.6-7.7s3.5-7.6,7.7-7.6s7.6,3.4,7.6,7.7C58,23.9,54.6,27.3,50.3,27.3L50.3,27.3z"/>
		<path class="st0" d="M37.1,60.6l2.2-5.5c0.2-0.4,0.1-1-0.3-1.3l-4.4-3.5l4.4-3.5c0.4-0.3,0.5-0.8,0.3-1.3L37.1,40
			c-0.2-0.4-0.6-0.7-1-0.7h-5.5v-5.5c0-0.4-0.3-0.8-0.7-1l-5.5-2.2c-0.4-0.2-1,0-1.3,0.3l-3.5,4.4L16.2,31c-0.3-0.4-0.8-0.5-1.3-0.3
			l-5.5,2.2c-0.4,0.2-0.7,0.6-0.7,1v5.5H3.3c-0.4,0-0.8,0.3-1,0.7l-2.2,5.5c-0.2,0.4,0,1,0.3,1.3l4.4,3.5l-4.4,3.5
			c-0.4,0.3-0.5,0.8-0.3,1.3l2.2,5.5c0.2,0.4,0.6,0.7,1,0.7h5.5v5.5c0,0.4,0.3,0.8,0.7,1l5.5,2.2c0.4,0.2,1,0,1.3-0.3l3.5-4.4
			l3.5,4.4c0.2,0.3,0.5,0.4,0.9,0.4c0.1,0,0.3,0,0.4-0.1l5.5-2.2c0.4-0.2,0.7-0.6,0.7-1v-5.5h5.5C36.5,61.2,36.9,61,37.1,60.6z
			 M29.5,59.1c-0.6,0-1.1,0.5-1.1,1.1l0,0V66l-4,1.6l-3.9-4.8c-0.2-0.3-0.5-0.4-0.9-0.4c-0.3,0-0.6,0.2-0.9,0.4L15,67.6L11,66v-5.8
			c0-0.6-0.5-1.1-1.1-1.1H4L2.4,55l4.8-3.9c0.3-0.2,0.4-0.5,0.4-0.9c0-0.3-0.2-0.6-0.4-0.8l-4.8-3.8l1.6-4h5.8
			c0.6,0,1.1-0.5,1.1-1.1l0,0v-5.8L15,33l3.9,4.8c0.4,0.5,1.1,0.5,1.6,0.1l0.1-0.1l3.8-4.8l4,1.6v5.8c0,0.6,0.5,1.1,1.1,1.1l0,0h5.8
			l1.6,4l-4.8,3.9c-0.3,0.2-0.4,0.5-0.4,0.8s0.2,0.6,0.4,0.9L37,55l-1.6,4L29.5,59.1z"/>
	</g>
</g>
</svg>
